<?xml version="1.0" encoding="UTF-8"?><svg xmlns="http://www.w3.org/2000/svg" viewBox="0 0 1600 980"><defs><linearGradient id="g" x1="0" y1="0" x2="1" y2="1"><stop stop-color="#f3f6fa"/><stop offset="1" stop-color="#082d70"/></linearGradient><filter id="s"><feDropShadow dx="0" dy="12" stdDeviation="14" flood-opacity=".25"/></filter></defs><rect width="1600" height="980" fill="url(#g)"/><circle cx="1350" cy="150" r="210" fill="#ffd21a" opacity=".2"/><rect y="560" width="1600" height="420" fill="#f4f7fb"/><path d="M0 560H1600M0 760H1600" stroke="#d9e2ed" stroke-width="5"/><circle cx="1320" cy="220" r="150" fill="#ffd21a" opacity=".3"/><circle cx="1450" cy="360" r="80" fill="#0b3d7c" opacity=".12"/><g filter="url(#s)"><ellipse cx="920" cy="870" rx="250" ry="40" fill="#061d46" opacity=".25"/><circle cx="860" cy="270" r="78" fill="#b97852"/><path d="M785 270Q800 175 880 185Q940 195 945 275Q905 235 862 240Q820 240 785 270" fill="#17253a"/><path d="M800 340Q860 380 925 338L950 530Q860 570 785 525Z" fill="#fff"/><path d="M805 385L690 520M925 385L1060 500" stroke="#fff" stroke-width="38" stroke-linecap="round"/><path d="M820 520L790 720L870 735L900 545M900 545L935 735L1015 720L970 515" fill="#0b3d7d"/><path d="M790 720L750 875M935 735L1015 875" stroke="#153d73" stroke-width="58" stroke-linecap="round"/><path d="M750 875h82M1015 875h-82" stroke="#071d3e" stroke-width="34" stroke-linecap="round"/><image href="/msa-logo-official.png" x="835" y="365" width="78" height="78"/></g><rect x="42" y="42" width="330" height="150" rx="28" fill="#fff" opacity=".95"/><image href="/msa-logo-official.png" x="34" y="34" width="120" height="120"/><text x="172" y="92" font-family="Arial" font-size="24" font-weight="900" fill="#082d70">ACADEMY</text><text x="172" y="126" font-family="Arial" font-size="16" font-weight="800" fill="#082d70">WHERE CHAMPIONS</text><text x="172" y="149" font-family="Arial" font-size="16" font-weight="800" fill="#082d70">ARE MADE</text><rect x="62" y="846" width="330" height="68" rx="34" fill="#ffd21a"/><text x="227" y="890" text-anchor="middle" font-family="Arial" font-size="28" font-weight="1000" fill="#082d70">TAEKWONDO</text></svg>